<?xml version="1.0" encoding="utf-8"?>
<svg viewBox="0 0 86.156 106.213" style="enable-background:new 0 0 400 105;" xmlns="http://www.w3.org/2000/svg">
  <defs>
    <style type="text/css">
	.st0{fill:#FFFFFF;}
	.st1{fill:#00B6D5;}
</style>
  </defs>
  <g>
    <g>
      <g>
        <g>
          <path class="st0" d="M397,78.3c0-1-0.5-2.1-2.7-2.1h-2.2v6.1h1.4v-2h1.2l0.7,2h1.5l-0.9-2.3C396.8,79.7,397,78.9,397,78.3z M393.5,77.4h0.9c0.9,0,1.2,0.4,1.2,0.9c0,0.5-0.3,0.9-1.2,0.9h-0.9V77.4z"/>
        </g>
      </g>
      <g>
        <path class="st0" d="M394.4,84.9c-3.1,0-5.6-2.5-5.6-5.6s2.5-5.6,5.6-5.6s5.6,2.5,5.6,5.6S397.5,84.9,394.4,84.9z M394.4,74.8 c-2.5,0-4.5,2-4.5,4.5c0,2.5,2,4.5,4.5,4.5c2.5,0,4.5-2,4.5-4.5C398.9,76.8,396.9,74.8,394.4,74.8z"/>
      </g>
    </g>
    <g/>
    <path class="st1" d="M86.3,68.8v-17H68.5c-0.5-1.2-1-2.4-1.6-3.6l12.7-12.9l-11.8-12L57.6,33.6C52.7,25.9,47.3,16,43.1,0.9 C39,16,33.6,25.9,28.7,33.6L18.5,23.3l-11.8,12l12.7,12.9c-0.6,1.2-1.2,2.4-1.6,3.6H0v17h17.6c0.4,1.3,1,2.6,1.6,3.8L6.7,85.3 l11.8,12L31,84.6c1.2,0.6,2.5,1.2,3.8,1.6v17.9h16.7V86.2c1.3-0.4,2.6-1,3.8-1.6l12.5,12.7l11.8-12L67.1,72.6 c0.6-1.2,1.2-2.5,1.6-3.8H86.3z M43.1,38.6c2,3.3,4,6.3,5.7,8.9c4.7,7,6.3,9.7,6.3,12.8c0,6.7-5.4,12.2-12,12.2 c-6.6,0-12-5.5-12-12.2c0-3.2,1.6-5.9,6.3-12.8C39.2,44.8,41.1,41.9,43.1,38.6z"/>
  </g>
</svg>