<?xml version="1.0" encoding="utf-8"?>
<svg viewBox="0 0 12.4 12.837" xmlns="http://www.w3.org/2000/svg">
  <g id="layer1" transform="matrix(1, 0, 0, 1, 0, -284.564575)">
    <g id="g2342" transform="matrix(0.31216151,0,0,0.31216151,-5.1628847,225.72312)">
      <path d="m 43.901029,193.31807 c -2.442368,-1.3171 -5.236633,-2.06587 -8.206316,-2.06587 -4.777317,0 -9.103254,1.93675 -12.233804,5.06704 -3.130815,3.13108 -5.067036,7.45701 -5.067036,12.2346 0,4.77864 1.936221,9.10378 5.067036,12.23512 3.13055,3.13029 7.456487,5.06572 12.233804,5.06572 2.970477,0 5.7658,-0.74904 8.207904,-2.06693 -2.741613,1.70312 -5.977467,2.68711 -9.442715,2.68711 -4.948766,0 -9.42922,-2.00687 -12.671954,-5.2496 -3.242733,-3.24273 -5.248804,-7.72319 -5.248804,-12.67195 0,-4.9493 2.006335,-9.42949 5.248804,-12.67302 3.242734,-3.24246 7.723188,-5.24827 12.671954,-5.24827 3.464719,5.3e-4 6.699515,0.98372 9.441127,2.68605" id="path1170" style="fill:#0096db;stroke-width:0.26458332"/>
      <path d="m 35.694713,188.77385 c 5.461793,0 10.406856,2.21403 13.986668,5.79332 3.579019,3.57955 5.793317,8.52514 5.793317,13.98667 0,5.46073 -2.214298,10.40659 -5.793317,13.98534 -3.579283,3.58061 -8.524875,5.79411 -13.986668,5.79411 -3.801004,0 -7.351448,-1.07262 -10.365581,-2.93026 2.71436,1.47241 5.825066,2.30981 9.13077,2.30981 5.290873,0 10.081419,-2.14418 13.548519,-5.61101 3.4671,-3.4671 5.612342,-8.25739 5.612342,-13.54826 0,-5.29034 -2.145242,-10.08115 -5.612342,-13.54878 -3.4671,-3.4671 -8.257381,-5.61155 -13.548519,-5.61155 -3.307291,0 -6.418791,0.83794 -9.133152,2.31352 3.014927,-1.85976 6.566694,-2.93291 10.367963,-2.93291" id="path1172" style="fill:#a83da3;stroke-width:0.26458332"/>
      <path d="m 40.773919,207.35422 c 0.381,1.06547 0.570706,2.28097 0.570706,3.65072 v 6.29999 c 0.02514,0.53419 0.09948,0.94271 0.216959,1.23375 0.123825,0.29104 0.266435,0.51488 0.421481,0.66331 0.160866,0.1487 0.328083,0.26035 0.514085,0.31671 0.179917,0.0622 0.347663,0.12912 0.502179,0.20399 0.149225,0.0669 0.27305,0.17251 0.353219,0.30348 0.08705,0.13573 0.123825,0.34713 0.111125,0.63765 h -3.241146 -4.120621 c -0.02487,-0.29078 0.01191,-0.50192 0.09896,-0.6313 0.09313,-0.13758 0.216958,-0.23654 0.359568,-0.31009 0.148696,-0.0749 0.309298,-0.13573 0.489215,-0.19156 0.179917,-0.0561 0.353219,-0.15531 0.514615,-0.29951 0.166687,-0.14658 0.310091,-0.35719 0.427302,-0.63712 0.118004,-0.27807 0.192087,-0.67627 0.229129,-1.19512 v -6.96568 c 0,-0.28179 -0.01667,-0.55536 -0.05054,-0.81571 l 0.383911,-0.52229 c 0.249237,-0.33946 0.545041,-0.63976 0.872066,-0.90329 0.414603,-0.33285 0.867305,-0.61225 1.347788,-0.83793 m -16.594932,13.3096 c -0.02487,-0.30348 0.01217,-0.51462 0.111389,-0.644 0.09313,-0.12885 0.216694,-0.23045 0.360098,-0.29739 0.147902,-0.0749 0.315384,-0.14182 0.50165,-0.204 0.185738,-0.0564 0.35904,-0.16827 0.514086,-0.3167 0.161396,-0.14843 0.297656,-0.37677 0.409046,-0.68025 0.118004,-0.30347 0.186266,-0.7321 0.211137,-1.28984 v -6.2267 c 0,-2.56726 0.687387,-4.60614 2.069042,-6.12405 1.370012,-1.49966 3.198018,-2.24949 5.484812,-2.24949 1.4986,0 2.799027,0.32412 3.903663,0.97182 -0.211402,0.12065 -0.417777,0.24818 -0.618067,0.38708 -0.690563,0.47467 -1.318683,1.03029 -1.872192,1.6592 l -0.189971,0.2159 c -0.377031,-0.0984 -0.781579,-0.14816 -1.210997,-0.14816 -1.27635,0 -2.330186,0.43391 -3.166798,1.30783 -0.824177,0.89191 -1.239309,2.03253 -1.239309,3.40863 v 7.20064 c 0.04974,0.45852 0.136525,0.81809 0.254265,1.07235 0.123031,0.25374 0.266171,0.44556 0.433123,0.57044 0.161396,0.12886 0.329141,0.21537 0.502444,0.27147 0.167216,0.0558 0.322262,0.118 0.464343,0.19155 0.13679,0.0688 0.248179,0.1741 0.328877,0.30533 0.08017,0.13626 0.11139,0.34052 0.09922,0.61834 z" id="path1174" style="fill:#0096db;stroke-width:0.26458332"/>
      <path d="m 42.10054,217.48802 c 0.417248,0.0818 0.85381,0.13573 1.308894,0.16537 h 0.582612 c 0.192088,-0.0386 0.334169,-0.10478 0.427302,-0.21061 0.08705,-0.0992 0.161396,-0.22384 0.205052,-0.35931 0.04974,-0.14261 0.0926,-0.29077 0.118004,-0.44635 0.0299,-0.15478 0.07382,-0.29924 0.129646,-0.42836 0.0553,-0.12488 0.13044,-0.23495 0.235215,-0.32676 0.105569,-0.0886 0.260614,-0.14473 0.465137,-0.15557 0.05609,0 0.08678,0.0238 0.08678,0.0733 l -0.01879,4.86436 h -1.432454 c 0.01164,-0.3556 -0.03307,-0.72602 -0.22569,-1.03373 -0.161395,-0.25611 -0.397668,-0.45852 -0.673629,-0.5834 -0.176477,-0.0839 -0.370152,-0.16405 -0.567796,-0.23046 -0.108214,-0.0347 -0.194733,-0.10504 -0.25347,-0.16113 -0.09419,-0.0908 -0.184944,-0.27569 -0.24183,-0.40746 -0.0844,-0.20875 -0.124618,-0.49979 -0.144991,-0.75988 m -3.14034,-9.87451 c -1.332441,1.07817 -1.995487,2.49105 -1.995487,4.24577 0,0.88714 0.171185,1.68619 0.513556,2.39871 v 3.11335 c -0.02117,0.28416 -0.06138,0.67654 -0.171185,0.93477 -0.0463,0.10954 -0.107157,0.22781 -0.186532,0.32094 l -0.05953,0.0688 c -0.194998,-0.14181 -0.38444,-0.29104 -0.567002,-0.4482 -1.865577,-1.62322 -2.801144,-3.77428 -2.801144,-6.45054 0,-1.45574 0.328877,-2.80776 0.991129,-4.05368 0.688446,-1.24487 1.642798,-2.29262 2.863586,-3.14114 0.867304,-0.5834 1.790964,-0.99801 2.757223,-1.25227 0.582877,-0.16087 1.177396,-0.254 1.791493,-0.29104 0.607219,-0.0373 1.263915,-0.068 1.970882,-0.0929 h 1.573477 v 3.04826 1.85288 c 0,0.0497 -0.01191,0.0749 -0.04974,0.0749 -0.210344,-0.0124 -0.364596,-0.0619 -0.476779,-0.14896 -0.104775,-0.086 -0.186267,-0.19182 -0.235215,-0.32835 -0.04366,-0.12991 -0.08678,-0.27305 -0.117739,-0.42095 -0.03096,-0.15531 -0.06853,-0.29766 -0.118004,-0.44053 -0.05001,-0.13626 -0.117211,-0.25982 -0.216959,-0.37121 -0.09287,-0.1061 -0.235214,-0.17992 -0.415131,-0.21749 -1.091142,-0.0497 -2.044965,0.0807 -2.869142,0.38417 -0.824441,0.2974 -1.549664,0.70671 -2.181754,1.21471 z" id="path1176" style="fill:#a83da3;stroke-width:0.26458332"/>
      <path d="m 33.620644,194.9905 c 1.985433,0 3.594629,1.60973 3.594629,3.5941 0,1.98517 -1.609196,3.59489 -3.594629,3.59489 -1.98464,0 -3.5941,-1.60972 -3.5941,-3.59489 0,-1.98411 1.60946,-3.5941 3.5941,-3.5941" id="path1178" style="clip-rule:evenodd;fill:#0096db;fill-rule:evenodd;stroke-width:0.26458332"/>
      <path d="m 42.552977,194.9905 c 1.986492,0 3.595159,1.60973 3.595159,3.5941 0,1.98517 -1.608932,3.59489 -3.595159,3.59489 -1.985168,0 -3.5941,-1.60972 -3.5941,-3.59489 0,-1.98411 1.608932,-3.5941 3.5941,-3.5941" id="path1180" style="clip-rule:evenodd;fill:#a83da3;fill-rule:evenodd;stroke-width:0.26458332"/>
      <path d="m 95.459061,202.4499 h -2.430727 v 10.54391 c 0,1.51394 -0.568855,2.80802 -1.672961,3.91477 -1.105164,1.07236 -2.367756,1.60841 -3.851539,1.60841 -1.484048,0 -2.778125,-0.53605 -3.882496,-1.60841 -1.105165,-1.10675 -1.641475,-2.40083 -1.641475,-3.91477 V 202.4499 h -2.430727 v 10.25975 c 0,2.33653 0.757237,4.29154 2.24155,5.83962 1.515268,1.54569 3.408362,2.33627 5.713412,2.33627 2.304256,0 4.198673,-0.79058 5.682456,-2.33627 1.515269,-1.54835 2.272771,-3.50309 2.272771,-5.83962 V 202.4499 Z m -18.435638,7.73403 c 0,-2.336 -0.756708,-4.26217 -2.272242,-5.80892 -1.515268,-1.54676 -3.40942,-2.33601 -5.682191,-2.33601 -2.303992,0 -4.198409,0.78925 -5.713677,2.33601 -1.515269,1.54675 -2.273036,3.47292 -2.273036,5.80892 v 10.26002 h 2.430992 V 209.9302 c 0,-1.51421 0.53684,-2.80829 1.641475,-3.91398 1.1049,-1.10437 2.430992,-1.64121 3.91451,-1.64121 1.483255,0 2.746375,0.53657 3.851011,1.64121 1.105164,1.10569 1.67296,2.39977 1.67296,3.91398 v 10.51375 h 2.430463 v -10.26002 z" id="path1182" style="fill:#0096db;stroke-width:0.26458332"/>
      <path d="m 181.76323,206.64804 c 1.29434,1.42055 1.92484,3.06255 1.89389,4.95538 -0.0312,1.92696 -0.72681,3.53537 -2.08413,4.89374 -1.35784,1.35678 -2.96598,2.02009 -4.86092,2.02009 -1.8624,0 -3.44064,-0.66331 -4.73578,-2.02009 -1.29328,-1.35837 -1.98755,-2.96678 -2.01877,-4.86199 -0.032,-1.98728 0.63103,-3.69305 2.01877,-5.1763 1.42081,-1.48352 3.09377,-2.1463 5.08265,-2.05185 1.86214,0.063 3.41048,0.82021 4.70429,2.24102 m -11.86894,11.04874 c 1.79863,2.01983 4.00764,3.09404 6.65956,3.18902 2.58921,0.0947 4.8297,-0.82047 6.6921,-2.68314 1.86241,-1.89442 2.81014,-4.16877 2.81014,-6.78921 0,-2.52439 -0.88397,-4.70217 -2.62043,-6.53309 -1.7354,-1.83092 -3.85127,-2.77759 -6.34444,-2.84109 -2.58922,-0.0939 -4.82971,0.82073 -6.72412,2.71515 -1.86241,1.8624 -2.80882,4.10369 -2.80882,6.69184 0,0.032 0,0.12674 0,0.12674 v 15.1847 h 2.33627 v -9.06092 z m -4.95591,-8.01899 c 0,-2.2405 -0.66305,-4.07141 -1.95819,-5.42899 -1.23004,-1.29408 -2.80881,-2.02036 -4.7662,-2.17805 -2.62017,-0.22119 -4.7035,0.91572 -6.24946,3.34619 -1.54834,-2.43047 -3.63035,-3.56738 -6.25078,-3.34619 -1.95712,0.15796 -3.53642,0.88397 -4.73498,2.17805 -1.29514,1.35758 -1.92591,3.18823 -1.92591,5.42899 v 10.76616 h 2.49344 v -11.05006 c 0,-1.42029 0.37915,-2.58789 1.16813,-3.56632 0.78899,-0.97922 1.83118,-1.48484 3.12553,-1.48484 1.32635,0 2.46221,0.44265 3.40915,1.2954 0.9779,0.85222 1.45257,1.92511 1.45257,3.21971 v 11.58611 h 2.52465 v -11.58611 c 0,-1.2946 0.4736,-2.36749 1.42108,-3.21971 0.97869,-0.85275 2.1156,-1.2954 3.4409,-1.2954 1.29408,0 2.36723,0.50588 3.15648,1.48484 0.78899,0.97843 1.19936,2.17778 1.19936,3.56632 v 11.05006 h 2.49449 v -10.76616 z m -42.42727,-3.3147 c 1.35758,-1.35626 2.96837,-2.02036 4.89321,-2.02036 1.83118,0 3.40942,0.6641 4.7035,2.02036 1.29513,1.35757 1.98861,2.96836 2.01956,4.86145 0.0323,1.9894 -0.63077,3.7248 -2.05078,5.20859 -1.3888,1.45335 -3.06176,2.14894 -5.05037,2.05158 -1.83118,-0.0923 -3.40969,-0.82048 -4.7035,-2.23891 -1.2954,-1.42134 -1.89468,-3.09456 -1.8624,-4.98925 0.031,-1.9251 0.694,-3.53562 2.05078,-4.89346 z m 14.01604,5.17789 v -0.12753 c 0.0947,-2.49343 -0.75671,-4.67069 -2.52571,-6.5016 -1.76689,-1.86267 -3.91451,-2.80908 -6.43916,-2.90433 -2.62044,-0.0947 -4.86199,0.78951 -6.72465,2.6834 -1.86108,1.8624 -2.80856,4.13597 -2.80856,6.75534 0,2.52571 0.88371,4.70456 2.62044,6.53468 1.73566,1.83039 3.85101,2.7776 6.34444,2.87179 2.8411,0.0947 5.24087,-0.97737 7.19693,-3.21839 v 2.80961 h 2.33627 z m -19.72839,3.59781 h -2.71541 c -1.3888,2.21085 -3.47213,3.34592 -6.28201,3.37846 -1.95685,0.0323 -3.66236,-0.66331 -5.08132,-2.05184 -1.42108,-1.41896 -2.14683,-3.09431 -2.14683,-5.05196 0,-1.955 0.75698,-3.65998 2.30399,-5.08079 1.48326,-1.38933 3.12526,-2.05184 4.98687,-2.02036 2.77865,0.0627 4.8305,1.26233 6.18834,3.56632 h 2.71409 l -0.34686,-0.78925 c -0.66331,-1.48273 -1.7989,-2.68235 -3.34592,-3.66131 -1.64201,-1.00965 -3.40969,-1.51553 -5.30331,-1.48272 -2.65271,0.031 -4.92522,1.00965 -6.85006,2.87205 -1.894157,1.8624 -2.80988,4.07167 -2.778394,6.69316 0.03175,2.58604 0.978958,4.79769 2.872844,6.59554 1.89362,1.80022 4.13517,2.71515 6.75561,2.7469 3.94599,0.0328 6.88155,-1.67269 8.77543,-5.17604 z" id="path1184" style="fill:#a83da3;stroke-width:0.26458332"/>
    </g>
  </g>
</svg>